<svg width="35" height="26" viewBox="0 0 35 26" fill="none" xmlns="http://www.w3.org/2000/svg">
<rect y="2.12109" width="35" height="23.3333" rx="4.61029" fill="#222222"/>
<rect width="35" height="21.2121" rx="4.61029" fill="#373737"/>
<path d="M10.5078 13.6565C9.77016 13.6565 9.11037 13.509 8.52845 13.214C7.95473 12.9189 7.50394 12.5132 7.1761 11.9968C6.84826 11.4723 6.68433 10.874 6.68433 10.2019C6.68433 9.52982 6.84826 8.9356 7.1761 8.41925C7.50394 7.9029 7.95473 7.50129 8.52845 7.21443C9.11037 6.91937 9.77016 6.77184 10.5078 6.77184C11.2618 6.77184 11.9134 6.93166 12.4626 7.25131C13.0117 7.57096 13.401 8.02174 13.6305 8.60366L11.8233 9.52572C11.6676 9.21427 11.4749 8.98888 11.2455 8.84955C11.016 8.70202 10.766 8.62825 10.4955 8.62825C10.225 8.62825 9.97916 8.68972 9.75786 8.81266C9.53657 8.9356 9.36035 9.11592 9.22922 9.3536C9.10628 9.58309 9.04481 9.86586 9.04481 10.2019C9.04481 10.5461 9.10628 10.8371 9.22922 11.0748C9.36035 11.3125 9.53657 11.4928 9.75786 11.6157C9.97916 11.7387 10.225 11.8001 10.4955 11.8001C10.766 11.8001 11.016 11.7305 11.2455 11.5911C11.4749 11.4436 11.6676 11.2141 11.8233 10.9027L13.6305 11.8247C13.401 12.4066 13.0117 12.8574 12.4626 13.1771C11.9134 13.4967 11.2618 13.6565 10.5078 13.6565ZM17.5933 13.6565C16.7409 13.6565 16.077 13.4475 15.6016 13.0295C15.1262 12.6033 14.8885 11.9641 14.8885 11.1117V5.3949H17.2244V11.0871C17.2244 11.3248 17.29 11.5133 17.4211 11.6526C17.5523 11.7837 17.7203 11.8493 17.9252 11.8493C18.2039 11.8493 18.4415 11.7796 18.6383 11.6403L19.2161 13.2754C19.0194 13.4066 18.7776 13.5008 18.4907 13.5582C18.2039 13.6238 17.9047 13.6565 17.5933 13.6565ZM13.9173 8.87413V7.12837H18.7489V8.87413H13.9173ZM20.1168 13.5459V6.88249H22.342V8.82496L22.0101 8.27172C22.2068 7.77176 22.5265 7.39884 22.969 7.15296C23.4116 6.89888 23.9485 6.77184 24.5796 6.77184V8.87413C24.473 8.85774 24.3788 8.84955 24.2968 8.84955C24.223 8.84135 24.1411 8.83725 24.0509 8.83725C23.5756 8.83725 23.1903 8.96839 22.8953 9.23066C22.6002 9.48474 22.4527 9.90274 22.4527 10.4847V13.5459H20.1168ZM25.5435 13.5459V4.42366H27.8794V13.5459H25.5435Z" fill="white"/>
</svg>
