<svg width="25" height="25" viewBox="0 0 25 25" fill="none" xmlns="http://www.w3.org/2000/svg">
<rect x="0.411133" y="3.20605" width="24.5882" height="21.5147" rx="4.61029" fill="#222222"/>
<rect x="0.411133" y="0.970703" width="24.5882" height="19.9779" rx="4.61029" fill="#373737"/>
<path d="M12.5329 14.0228C11.746 14.0228 11.0576 13.8752 10.4674 13.5802C9.88553 13.2769 9.43064 12.8671 9.1028 12.3508C8.78315 11.8262 8.62333 11.232 8.62333 10.5681C8.62333 9.90423 8.77906 9.31411 9.09051 8.79776C9.41015 8.27321 9.84864 7.8675 10.406 7.58064C10.9633 7.28558 11.5903 7.13805 12.287 7.13805C12.9427 7.13805 13.541 7.27329 14.0819 7.54376C14.6229 7.80603 15.0532 8.19534 15.3728 8.7117C15.6924 9.22805 15.8523 9.85505 15.8523 10.5927C15.8523 10.6747 15.8482 10.7689 15.84 10.8755C15.8318 10.982 15.8236 11.0804 15.8154 11.1705H10.5412V9.94111H14.5737L13.6885 10.2853C13.6967 9.98209 13.6393 9.71981 13.5164 9.49852C13.4016 9.27723 13.2377 9.10511 13.0246 8.98217C12.8197 8.85923 12.5779 8.79776 12.2993 8.79776C12.0206 8.79776 11.7747 8.85923 11.5616 8.98217C11.3567 9.10511 11.1969 9.28132 11.0822 9.51082C10.9674 9.73211 10.91 9.99438 10.91 10.2976V10.6542C10.91 10.982 10.9756 11.2648 11.1067 11.5025C11.2461 11.7401 11.4428 11.9246 11.6969 12.0557C11.9509 12.1786 12.2542 12.2401 12.6066 12.2401C12.9345 12.2401 13.2131 12.195 13.4426 12.1049C13.6803 12.0065 13.9139 11.859 14.1434 11.6623L15.3728 12.9409C15.0532 13.2933 14.6597 13.5638 14.1926 13.7523C13.7254 13.9326 13.1722 14.0228 12.5329 14.0228Z" fill="white"/>
</svg>
