<svg width="25" height="25" viewBox="0 0 25 25" fill="none" xmlns="http://www.w3.org/2000/svg">
<rect y="3.20605" width="24.5882" height="21.5147" rx="4.61029" fill="#222222"/>
<rect y="0.970703" width="24.5882" height="19.9779" rx="4.61029" fill="#373737"/>
<path d="M11.6513 14.0228C11.053 14.0228 10.5038 13.8834 10.0039 13.6048C9.50392 13.3261 9.10641 12.9286 8.81135 12.4122C8.52449 11.8959 8.38106 11.2853 8.38106 10.5804C8.38106 9.87554 8.52449 9.26903 8.81135 8.76087C9.10641 8.24452 9.50392 7.84701 10.0039 7.56834C10.5038 7.28148 11.053 7.13805 11.6513 7.13805C12.2578 7.13805 12.7578 7.26099 13.1512 7.50687C13.5446 7.75276 13.8396 8.12978 14.0364 8.63793C14.2331 9.13789 14.3314 9.78538 14.3314 10.5804C14.3314 11.3672 14.2249 12.0147 14.0118 12.5229C13.8069 13.0228 13.5036 13.3999 13.102 13.6539C12.7086 13.8998 12.225 14.0228 11.6513 14.0228ZM12.1431 12.1663C12.4053 12.1663 12.6389 12.1049 12.8438 11.9819C13.0569 11.859 13.2249 11.6787 13.3479 11.441C13.479 11.2033 13.5446 10.9164 13.5446 10.5804C13.5446 10.2444 13.479 9.9575 13.3479 9.71981C13.2249 9.48213 13.0569 9.30182 12.8438 9.17887C12.6389 9.05593 12.4053 8.99446 12.1431 8.99446C11.8808 8.99446 11.6431 9.05593 11.43 9.17887C11.2251 9.30182 11.0571 9.48213 10.9259 9.71981C10.803 9.9575 10.7415 10.2444 10.7415 10.5804C10.7415 10.9164 10.803 11.2033 10.9259 11.441C11.0571 11.6787 11.2251 11.859 11.43 11.9819C11.6431 12.1049 11.8808 12.1663 12.1431 12.1663ZM13.5077 16.2972V12.7933L13.6306 10.5804L13.6184 8.37976V7.2487H15.8436V16.2972H13.5077Z" fill="white"/>
</svg>
