<svg width="28" height="26" viewBox="0 0 28 26" fill="none" xmlns="http://www.w3.org/2000/svg">
<path d="M6.52637 7.48637V9.63586C6.52637 10.4498 7.18613 11.1095 8.00004 11.1095C8.81395 11.1095 9.47371 10.4498 9.47371 9.63586V7.48637C9.47371 6.67246 8.81395 6.0127 8.00004 6.0127C7.18613 6.0127 6.52637 6.67246 6.52637 7.48637Z" fill="white"/>
<path d="M5.05306 7.4854C5.05306 6.11459 5.9938 4.95933 7.26357 4.63134V0.442383C3.19678 0.815565 0.000976562 4.24509 0.000976562 8.40757V8.52409H5.05311V7.4854H5.05306Z" fill="#373737"/>
<path d="M8.7373 0.442383V4.63129C10.0071 4.95933 10.9478 6.11454 10.9478 7.48535V8.52409H15.9999V8.40757C15.9999 4.24509 12.8041 0.815565 8.7373 0.442383V0.442383Z" fill="#373737"/>
<path d="M8.0004 12.5825C6.49819 12.5825 5.25574 11.4525 5.0762 9.99805H0.000976562V17.5595C0.000976562 21.9704 3.58951 25.559 8.00045 25.559C12.4114 25.559 15.9999 21.9705 15.9999 17.5595V9.99805H10.9246C10.7451 11.4525 9.50266 12.5825 8.0004 12.5825Z" fill="#373737"/>
<path d="M23.6663 5V21M23.6663 5L20.9997 7.66667M23.6663 5L26.333 7.66667M23.6663 21L20.9997 18.3333M23.6663 21L26.333 18.3333" stroke="white" stroke-width="1.52381" stroke-linecap="round" stroke-linejoin="round"/>
</svg>
