<svg width="45" height="25" viewBox="0 0 45 25" fill="none" xmlns="http://www.w3.org/2000/svg">
<rect y="2" width="45" height="23" rx="4.61029" fill="#222222"/>
<rect width="45" height="21" rx="4.61029" fill="#373737"/>
<path d="M6.59439 14.1106C6.02886 14.1106 5.47562 14.0451 4.93468 13.9139C4.40194 13.7828 3.97164 13.6189 3.6438 13.4222L4.34457 11.8239C4.65602 12.0125 5.02074 12.1641 5.43874 12.2788C5.85674 12.3854 6.26655 12.4386 6.66815 12.4386C7.06157 12.4386 7.33204 12.3977 7.47957 12.3157C7.63529 12.2337 7.71315 12.1231 7.71315 11.9838C7.71315 11.8526 7.63939 11.7584 7.49186 11.701C7.35253 11.6354 7.16402 11.5863 6.92633 11.5535C6.69684 11.5207 6.44276 11.4838 6.16409 11.4428C5.88543 11.4018 5.60266 11.3486 5.3158 11.283C5.03713 11.2092 4.77896 11.1027 4.54127 10.9634C4.31178 10.8158 4.12737 10.6191 3.98804 10.3732C3.8487 10.1274 3.77904 9.8159 3.77904 9.43888C3.77904 9.01269 3.90198 8.63567 4.14786 8.30782C4.40194 7.97178 4.77076 7.70951 5.25433 7.521C5.7379 7.32429 6.32802 7.22594 7.02468 7.22594C7.49186 7.22594 7.96313 7.27512 8.43851 7.37347C8.92208 7.46363 9.32778 7.60296 9.65562 7.79147L8.95486 9.37741C8.62702 9.1889 8.29917 9.06186 7.97133 8.99629C7.64349 8.92253 7.33204 8.88565 7.03698 8.88565C6.64357 8.88565 6.3649 8.93073 6.20098 9.02088C6.04525 9.11104 5.96739 9.22169 5.96739 9.35282C5.96739 9.48396 6.03706 9.58641 6.17639 9.66018C6.31572 9.72574 6.50013 9.77902 6.72962 9.82C6.96731 9.85278 7.22549 9.88967 7.50415 9.93065C7.78282 9.96343 8.06149 10.0167 8.34015 10.0905C8.62702 10.1642 8.88519 10.2749 9.11468 10.4224C9.35237 10.5617 9.54088 10.7544 9.68021 11.0002C9.81955 11.2379 9.88921 11.5453 9.88921 11.9223C9.88921 12.3321 9.76217 12.7009 9.5081 13.0288C9.26221 13.3566 8.89339 13.6189 8.40162 13.8156C7.91806 14.0123 7.31564 14.1106 6.59439 14.1106ZM15.0881 14.1106C14.5226 14.1106 14.039 13.9877 13.6374 13.7418C13.2358 13.4877 12.9284 13.1107 12.7153 12.6108C12.5104 12.1026 12.408 11.4551 12.408 10.6683C12.408 9.87327 12.5063 9.22578 12.703 8.72582C12.8997 8.21767 13.1948 7.84065 13.5882 7.59476C13.9898 7.34888 14.4898 7.22594 15.0881 7.22594C15.6946 7.22594 16.2437 7.36937 16.7355 7.65623C17.2355 7.9349 17.6289 8.33241 17.9157 8.84876C18.2108 9.35692 18.3583 9.96343 18.3583 10.6683C18.3583 11.3732 18.2108 11.9838 17.9157 12.5001C17.6289 13.0165 17.2355 13.414 16.7355 13.6926C16.2437 13.9713 15.6946 14.1106 15.0881 14.1106ZM10.8958 16.3851V7.33659H13.121V8.46765L13.1087 10.6683L13.2317 12.8812V16.3851H10.8958ZM14.5963 12.2542C14.8586 12.2542 15.0922 12.1928 15.2971 12.0698C15.5102 11.9469 15.6782 11.7666 15.8011 11.5289C15.9323 11.2912 15.9979 11.0043 15.9979 10.6683C15.9979 10.3323 15.9323 10.0454 15.8011 9.80771C15.6782 9.57002 15.5102 9.38971 15.2971 9.26676C15.0922 9.14382 14.8586 9.08235 14.5963 9.08235C14.334 9.08235 14.0964 9.14382 13.8833 9.26676C13.6784 9.38971 13.5103 9.57002 13.3792 9.80771C13.2563 10.0454 13.1948 10.3323 13.1948 10.6683C13.1948 11.0043 13.2563 11.2912 13.3792 11.5289C13.5103 11.7666 13.6784 11.9469 13.8833 12.0698C14.0964 12.1928 14.334 12.2542 14.5963 12.2542ZM23.3693 14V12.7583L23.2095 12.4509V10.1642C23.2095 9.79541 23.0948 9.51265 22.8653 9.31594C22.644 9.11104 22.2874 9.00859 21.7957 9.00859C21.476 9.00859 21.1523 9.06186 20.8244 9.16841C20.4966 9.26676 20.2179 9.4061 19.9884 9.58641L19.2016 8.00047C19.5786 7.75459 20.0294 7.56608 20.554 7.43494C21.0867 7.29561 21.6154 7.22594 22.1399 7.22594C23.2218 7.22594 24.0578 7.47592 24.6479 7.97588C25.2462 8.46765 25.5454 9.24218 25.5454 10.2995V14H23.3693ZM21.4023 14.1106C20.8695 14.1106 20.4187 14.0205 20.0499 13.8402C19.6811 13.6599 19.3983 13.414 19.2016 13.1025C19.0131 12.7911 18.9189 12.4427 18.9189 12.0575C18.9189 11.6477 19.0213 11.2953 19.2262 11.0002C19.4393 10.697 19.7631 10.4675 20.1974 10.3118C20.6318 10.1478 21.1933 10.0659 21.8817 10.0659H23.4554V11.283H22.2014C21.8244 11.283 21.558 11.3445 21.4023 11.4674C21.2547 11.5904 21.181 11.7543 21.181 11.9592C21.181 12.1641 21.2588 12.328 21.4146 12.4509C21.5703 12.5739 21.7834 12.6354 22.0539 12.6354C22.3079 12.6354 22.5374 12.5739 22.7423 12.4509C22.9554 12.3198 23.1112 12.1231 23.2095 11.8608L23.5292 12.7214C23.4062 13.1804 23.1644 13.5287 22.8038 13.7664C22.4514 13.9959 21.9842 14.1106 21.4023 14.1106ZM30.5093 14.1106C29.7717 14.1106 29.1119 13.9631 28.53 13.6681C27.9563 13.373 27.5055 12.9673 27.1776 12.4509C26.8498 11.9264 26.6859 11.3281 26.6859 10.656C26.6859 9.98392 26.8498 9.38971 27.1776 8.87335C27.5055 8.357 27.9563 7.95539 28.53 7.66853C29.1119 7.37347 29.7717 7.22594 30.5093 7.22594C31.2634 7.22594 31.915 7.38576 32.4641 7.70541C33.0132 8.02506 33.4025 8.47584 33.632 9.05776L31.8248 9.97982C31.6691 9.66837 31.4765 9.44298 31.247 9.30365C31.0175 9.15612 30.7675 9.08235 30.497 9.08235C30.2266 9.08235 29.9807 9.14382 29.7594 9.26676C29.5381 9.38971 29.3619 9.57002 29.2307 9.80771C29.1078 10.0372 29.0463 10.32 29.0463 10.656C29.0463 11.0002 29.1078 11.2912 29.2307 11.5289C29.3619 11.7666 29.5381 11.9469 29.7594 12.0698C29.9807 12.1928 30.2266 12.2542 30.497 12.2542C30.7675 12.2542 31.0175 12.1846 31.247 12.0452C31.4765 11.8977 31.6691 11.6682 31.8248 11.3568L33.632 12.2788C33.4025 12.8607 33.0132 13.3115 32.4641 13.6312C31.915 13.9508 31.2634 14.1106 30.5093 14.1106ZM37.931 14.1106C37.1442 14.1106 36.4557 13.9631 35.8656 13.6681C35.2837 13.3648 34.8288 12.955 34.501 12.4386C34.1813 11.9141 34.0215 11.3199 34.0215 10.656C34.0215 9.99212 34.1772 9.402 34.4887 8.88565C34.8083 8.3611 35.2468 7.95539 35.8042 7.66853C36.3615 7.37347 36.9885 7.22594 37.6852 7.22594C38.3408 7.22594 38.9392 7.36118 39.4801 7.63165C40.021 7.89392 40.4513 8.28323 40.771 8.79959C41.0906 9.31594 41.2505 9.94294 41.2505 10.6806C41.2505 10.7625 41.2464 10.8568 41.2382 10.9634C41.23 11.0699 41.2218 11.1683 41.2136 11.2584H35.9394V10.029H39.9719L39.0867 10.3732C39.0949 10.07 39.0375 9.80771 38.9146 9.58641C38.7998 9.36512 38.6359 9.193 38.4228 9.07006C38.2179 8.94712 37.9761 8.88565 37.6975 8.88565C37.4188 8.88565 37.1729 8.94712 36.9598 9.07006C36.7549 9.193 36.5951 9.36922 36.4803 9.59871C36.3656 9.82 36.3082 10.0823 36.3082 10.3855V10.7421C36.3082 11.0699 36.3738 11.3527 36.5049 11.5904C36.6443 11.828 36.841 12.0125 37.095 12.1436C37.3491 12.2665 37.6524 12.328 38.0048 12.328C38.3326 12.328 38.6113 12.2829 38.8408 12.1928C39.0785 12.0944 39.3121 11.9469 39.5416 11.7502L40.771 13.0288C40.4513 13.3812 40.0579 13.6517 39.5907 13.8402C39.1236 14.0205 38.5703 14.1106 37.931 14.1106Z" fill="white"/>
</svg>
